<svg width="50" height="50" viewBox="0 0 50 50" fill="none" xmlns="http://www.w3.org/2000/svg">
<path d="M33.7687 38.7914H16.2321C15.1259 38.7914 14.2251 37.898 14.2251 36.7992C14.2251 30.9017 19.0586 26.1039 25 26.1039C30.9414 26.1039 35.7749 30.9017 35.7749 36.7992C35.7749 37.898 34.8749 38.7914 33.7687 38.7914ZM18.609 17.5515C18.609 14.0538 21.4762 11.2086 25 11.2086C28.5238 11.2086 31.391 14.0538 31.391 17.5515C31.391 21.0493 28.5238 23.8953 25 23.8953C21.4762 23.8953 18.609 21.0493 18.609 17.5515ZM29.6384 24.7474C32.0255 23.2259 33.616 20.5718 33.616 17.5515C33.616 12.8362 29.7513 9 25 9C20.2496 9 16.3839 12.8362 16.3839 17.5515C16.3839 20.5718 17.9736 23.2259 20.3616 24.7474C15.4788 26.6057 12 31.3059 12 36.7992C12 39.1156 13.8984 41 16.2321 41H33.7687C36.1015 41 38 39.1156 38 36.7992C38 31.3059 34.522 26.6057 29.6384 24.7474Z" fill="#B3BCC5"/>
</svg>
